<?xml version="1.0" encoding="utf-8"?>
<!-- Generator: Adobe Illustrator 28.7.1, SVG Export Plug-In . SVG Version: 9.03 Build 54978)  -->
<svg version="1.1" baseProfile="basic" id="Layer_1"
	 xmlns="http://www.w3.org/2000/svg" xmlns:xlink="http://www.w3.org/1999/xlink" x="0px" y="0px" viewBox="0 0 277.1 354.2"
	 xml:space="preserve">
<g>
	
		<linearGradient id="SVGID_1_" gradientUnits="userSpaceOnUse" x1="62.1207" y1="183.346" x2="196.9137" y2="320.3488" gradientTransform="matrix(1 0 0 -1 0 356)">
		<stop  offset="0" style="stop-color:#4300AD"/>
		<stop  offset="1" style="stop-color:#EB001A"/>
	</linearGradient>
	<path fill="url(#SVGID_1_)" d="M223.1-0.1h-83.9c-11.5,0-20.8,8.3-20.8,18.6v55.7c0,9.6-4.1,18.9-11.5,26l0,0
		c-8,7.6-19.1,11.8-30.8,11.8H20.9C9.3,111.9,0,120.2,0,130.5v74.9C0,215.7,9.3,224,20.8,224h83.9c11.5,0,20.8-8.3,20.8-18.6v-55.7
		c0-9.6,4.1-18.9,11.5-26l0,0c8-7.6,19.1-11.8,30.8-11.8H223c11.5,0,20.8-8.3,20.8-18.6V18.5C243.8,8.2,234.6-0.1,223.1-0.1z"/>
	
		<linearGradient id="SVGID_00000108303261053551767350000008721844581795957391_" gradientUnits="userSpaceOnUse" x1="265.285" y1="578.578" x2="84.3482" y2="752.0279" gradientTransform="matrix(1 0 0 1 0 -442)">
		<stop  offset="0" style="stop-color:#EB001A"/>
		<stop  offset="1" style="stop-color:#4300AD"/>
	</linearGradient>
	<path fill="url(#SVGID_00000108303261053551767350000008721844581795957391_)" d="M256.3,130h-83.9c-11.5,0-20.8,8.3-20.8,18.6
		v55.7c0,9.6-4.1,18.9-11.5,26l0,0c-8,7.6-19.1,11.8-30.8,11.8H54.1c-11.5,0-20.8,8.3-20.8,18.6v74.9c0,10.3,9.3,18.6,20.8,18.6H138
		c11.5,0,20.8-8.3,20.8-18.6v-55.7c0-9.6,4.1-18.9,11.5-26l0,0c8-7.6,19.1-11.8,30.8-11.8h55.2c11.5,0,20.8-8.3,20.8-18.6v-74.9
		C277.2,138.3,267.8,130,256.3,130z"/>
</g>
</svg>
